<mxfile host="app.diagrams.net" agent="Mozilla/5.0 (Windows NT 10.0; Win64; x64) AppleWebKit/537.36 (KHTML, like Gecko) Chrome/134.0.0.0 Safari/537.36 Edg/134.0.0.0" version="24.8.6">
  <diagram name="Page-1" id="2VozZsnzBTsi_zzwC_rf">
    <mxGraphModel dx="2453" dy="1909" grid="1" gridSize="10" guides="1" tooltips="1" connect="1" arrows="1" fold="1" page="1" pageScale="1" pageWidth="850" pageHeight="1100" math="0" shadow="0">
      <root>
        <mxCell id="0" />
        <mxCell id="1" parent="0" />
        <mxCell id="lK_uX-MwU7xPtYsZOOTa-75" style="edgeStyle=orthogonalEdgeStyle;rounded=0;orthogonalLoop=1;jettySize=auto;html=1;" edge="1" parent="1" source="lK_uX-MwU7xPtYsZOOTa-3">
          <mxGeometry relative="1" as="geometry">
            <mxPoint x="405" y="-40" as="targetPoint" />
          </mxGeometry>
        </mxCell>
        <mxCell id="lK_uX-MwU7xPtYsZOOTa-3" value="" style="shape=waypoint;sketch=0;fillStyle=solid;size=6;pointerEvents=1;points=[];fillColor=none;resizable=0;rotatable=0;perimeter=centerPerimeter;snapToPoint=1;" vertex="1" parent="1">
          <mxGeometry x="395" y="-100" width="20" height="20" as="geometry" />
        </mxCell>
        <mxCell id="lK_uX-MwU7xPtYsZOOTa-73" style="edgeStyle=orthogonalEdgeStyle;rounded=0;orthogonalLoop=1;jettySize=auto;html=1;entryX=0.5;entryY=0;entryDx=0;entryDy=0;" edge="1" parent="1" source="lK_uX-MwU7xPtYsZOOTa-6" target="lK_uX-MwU7xPtYsZOOTa-7">
          <mxGeometry relative="1" as="geometry" />
        </mxCell>
        <mxCell id="lK_uX-MwU7xPtYsZOOTa-6" value="Khởi động app" style="rounded=1;whiteSpace=wrap;html=1;" vertex="1" parent="1">
          <mxGeometry x="462.5" width="95" height="40" as="geometry" />
        </mxCell>
        <mxCell id="lK_uX-MwU7xPtYsZOOTa-7" value="Màn hình chính&lt;div&gt;&amp;lt;Hiện các báo thực đang có&lt;span style=&quot;background-color: initial;&quot;&gt;&amp;gt;&lt;/span&gt;&lt;/div&gt;" style="rounded=1;whiteSpace=wrap;html=1;" vertex="1" parent="1">
          <mxGeometry x="450" y="100" width="120" height="60" as="geometry" />
        </mxCell>
        <mxCell id="lK_uX-MwU7xPtYsZOOTa-43" style="edgeStyle=orthogonalEdgeStyle;rounded=0;orthogonalLoop=1;jettySize=auto;html=1;" edge="1" parent="1" source="lK_uX-MwU7xPtYsZOOTa-8">
          <mxGeometry relative="1" as="geometry">
            <mxPoint x="250" y="330" as="targetPoint" />
          </mxGeometry>
        </mxCell>
        <mxCell id="lK_uX-MwU7xPtYsZOOTa-8" value="Thêm các báo thức" style="rounded=1;whiteSpace=wrap;html=1;" vertex="1" parent="1">
          <mxGeometry x="190" y="230" width="120" height="60" as="geometry" />
        </mxCell>
        <mxCell id="lK_uX-MwU7xPtYsZOOTa-9" value="Thêm/sửa câu hỏi" style="rounded=1;whiteSpace=wrap;html=1;" vertex="1" parent="1">
          <mxGeometry x="630" y="240" width="120" height="60" as="geometry" />
        </mxCell>
        <mxCell id="lK_uX-MwU7xPtYsZOOTa-49" style="edgeStyle=orthogonalEdgeStyle;rounded=0;orthogonalLoop=1;jettySize=auto;html=1;" edge="1" parent="1" source="lK_uX-MwU7xPtYsZOOTa-10">
          <mxGeometry relative="1" as="geometry">
            <mxPoint x="222.5" y="500" as="targetPoint" />
          </mxGeometry>
        </mxCell>
        <mxCell id="lK_uX-MwU7xPtYsZOOTa-10" value="Đặt thời gian" style="rounded=1;whiteSpace=wrap;html=1;" vertex="1" parent="1">
          <mxGeometry x="190" y="410" width="65" height="60" as="geometry" />
        </mxCell>
        <mxCell id="lK_uX-MwU7xPtYsZOOTa-50" style="edgeStyle=orthogonalEdgeStyle;rounded=0;orthogonalLoop=1;jettySize=auto;html=1;" edge="1" parent="1" source="lK_uX-MwU7xPtYsZOOTa-11">
          <mxGeometry relative="1" as="geometry">
            <mxPoint x="305" y="500" as="targetPoint" />
          </mxGeometry>
        </mxCell>
        <mxCell id="lK_uX-MwU7xPtYsZOOTa-11" value="Set chế độ lặp" style="rounded=1;whiteSpace=wrap;html=1;" vertex="1" parent="1">
          <mxGeometry x="275" y="410" width="60" height="60" as="geometry" />
        </mxCell>
        <mxCell id="lK_uX-MwU7xPtYsZOOTa-51" style="edgeStyle=orthogonalEdgeStyle;rounded=0;orthogonalLoop=1;jettySize=auto;html=1;" edge="1" parent="1" source="lK_uX-MwU7xPtYsZOOTa-13">
          <mxGeometry relative="1" as="geometry">
            <mxPoint x="385" y="500" as="targetPoint" />
          </mxGeometry>
        </mxCell>
        <mxCell id="lK_uX-MwU7xPtYsZOOTa-13" value="Chọn chủ đề câu hỏi" style="rounded=1;whiteSpace=wrap;html=1;" vertex="1" parent="1">
          <mxGeometry x="355" y="410" width="60" height="60" as="geometry" />
        </mxCell>
        <mxCell id="lK_uX-MwU7xPtYsZOOTa-14" value="Quay lại" style="rounded=1;whiteSpace=wrap;html=1;" vertex="1" parent="1">
          <mxGeometry x="70" y="370" width="60" height="60" as="geometry" />
        </mxCell>
        <mxCell id="lK_uX-MwU7xPtYsZOOTa-56" style="edgeStyle=orthogonalEdgeStyle;rounded=0;orthogonalLoop=1;jettySize=auto;html=1;" edge="1" parent="1" source="lK_uX-MwU7xPtYsZOOTa-16">
          <mxGeometry relative="1" as="geometry">
            <mxPoint x="305" y="710" as="targetPoint" />
          </mxGeometry>
        </mxCell>
        <mxCell id="lK_uX-MwU7xPtYsZOOTa-16" value="Thêm báo thức theo cài đặt" style="rounded=1;whiteSpace=wrap;html=1;" vertex="1" parent="1">
          <mxGeometry x="245" y="560" width="120" height="60" as="geometry" />
        </mxCell>
        <mxCell id="lK_uX-MwU7xPtYsZOOTa-18" value="Chọn chủ đề" style="rounded=1;whiteSpace=wrap;html=1;" vertex="1" parent="1">
          <mxGeometry x="780" y="350" width="80" height="60" as="geometry" />
        </mxCell>
        <mxCell id="lK_uX-MwU7xPtYsZOOTa-19" value="Thêm" style="rounded=1;whiteSpace=wrap;html=1;" vertex="1" parent="1">
          <mxGeometry x="690" y="450" width="120" height="60" as="geometry" />
        </mxCell>
        <mxCell id="lK_uX-MwU7xPtYsZOOTa-59" value="" style="edgeStyle=orthogonalEdgeStyle;rounded=0;orthogonalLoop=1;jettySize=auto;html=1;" edge="1" parent="1" source="lK_uX-MwU7xPtYsZOOTa-20" target="lK_uX-MwU7xPtYsZOOTa-22">
          <mxGeometry relative="1" as="geometry" />
        </mxCell>
        <mxCell id="lK_uX-MwU7xPtYsZOOTa-20" value="Sửa" style="rounded=1;whiteSpace=wrap;html=1;" vertex="1" parent="1">
          <mxGeometry x="840" y="450" width="120" height="60" as="geometry" />
        </mxCell>
        <mxCell id="lK_uX-MwU7xPtYsZOOTa-37" style="edgeStyle=orthogonalEdgeStyle;rounded=0;orthogonalLoop=1;jettySize=auto;html=1;entryX=0.5;entryY=0;entryDx=0;entryDy=0;" edge="1" parent="1" source="lK_uX-MwU7xPtYsZOOTa-21" target="lK_uX-MwU7xPtYsZOOTa-23">
          <mxGeometry relative="1" as="geometry" />
        </mxCell>
        <mxCell id="lK_uX-MwU7xPtYsZOOTa-58" value="" style="edgeStyle=orthogonalEdgeStyle;rounded=0;orthogonalLoop=1;jettySize=auto;html=1;" edge="1" parent="1" source="lK_uX-MwU7xPtYsZOOTa-21" target="lK_uX-MwU7xPtYsZOOTa-19">
          <mxGeometry relative="1" as="geometry" />
        </mxCell>
        <mxCell id="lK_uX-MwU7xPtYsZOOTa-21" value="Thêm câu hỏi và câu trả lời" style="rounded=1;whiteSpace=wrap;html=1;" vertex="1" parent="1">
          <mxGeometry x="690" y="550" width="120" height="60" as="geometry" />
        </mxCell>
        <mxCell id="lK_uX-MwU7xPtYsZOOTa-35" style="edgeStyle=orthogonalEdgeStyle;rounded=0;orthogonalLoop=1;jettySize=auto;html=1;entryX=1;entryY=0.5;entryDx=0;entryDy=0;" edge="1" parent="1" source="lK_uX-MwU7xPtYsZOOTa-22" target="lK_uX-MwU7xPtYsZOOTa-23">
          <mxGeometry relative="1" as="geometry" />
        </mxCell>
        <mxCell id="lK_uX-MwU7xPtYsZOOTa-22" value="Sửa câu hỏi và câu trả lời" style="rounded=1;whiteSpace=wrap;html=1;" vertex="1" parent="1">
          <mxGeometry x="840" y="550" width="120" height="60" as="geometry" />
        </mxCell>
        <mxCell id="lK_uX-MwU7xPtYsZOOTa-60" style="edgeStyle=orthogonalEdgeStyle;rounded=0;orthogonalLoop=1;jettySize=auto;html=1;" edge="1" parent="1" source="lK_uX-MwU7xPtYsZOOTa-23">
          <mxGeometry relative="1" as="geometry">
            <mxPoint x="820" y="779.9999999999998" as="targetPoint" />
          </mxGeometry>
        </mxCell>
        <mxCell id="lK_uX-MwU7xPtYsZOOTa-23" value="" style="rhombus;whiteSpace=wrap;html=1;" vertex="1" parent="1">
          <mxGeometry x="800" y="660" width="40" height="50" as="geometry" />
        </mxCell>
        <mxCell id="lK_uX-MwU7xPtYsZOOTa-38" style="edgeStyle=orthogonalEdgeStyle;rounded=0;orthogonalLoop=1;jettySize=auto;html=1;entryX=0;entryY=0.5;entryDx=0;entryDy=0;" edge="1" parent="1">
          <mxGeometry relative="1" as="geometry">
            <mxPoint x="799.95" y="685" as="targetPoint" />
            <mxPoint x="569.8973684210528" y="410" as="sourcePoint" />
            <Array as="points">
              <mxPoint x="570" y="680" />
              <mxPoint x="800" y="680" />
            </Array>
          </mxGeometry>
        </mxCell>
        <mxCell id="lK_uX-MwU7xPtYsZOOTa-24" value="Quay về màn hình chính" style="rounded=1;whiteSpace=wrap;html=1;" vertex="1" parent="1">
          <mxGeometry x="540" y="380" width="60" height="60" as="geometry" />
        </mxCell>
        <mxCell id="lK_uX-MwU7xPtYsZOOTa-27" value="" style="endArrow=classic;html=1;rounded=0;entryX=0.421;entryY=-0.036;entryDx=0;entryDy=0;exitX=0.5;exitY=1;exitDx=0;exitDy=0;entryPerimeter=0;" edge="1" parent="1" source="lK_uX-MwU7xPtYsZOOTa-18" target="lK_uX-MwU7xPtYsZOOTa-19">
          <mxGeometry width="50" height="50" relative="1" as="geometry">
            <mxPoint x="770" y="450" as="sourcePoint" />
            <mxPoint x="820" y="400" as="targetPoint" />
            <Array as="points">
              <mxPoint x="740" y="410" />
            </Array>
          </mxGeometry>
        </mxCell>
        <mxCell id="lK_uX-MwU7xPtYsZOOTa-28" value="" style="endArrow=classic;html=1;rounded=0;exitX=1;exitY=1;exitDx=0;exitDy=0;entryX=0.5;entryY=0;entryDx=0;entryDy=0;" edge="1" parent="1" source="lK_uX-MwU7xPtYsZOOTa-18" target="lK_uX-MwU7xPtYsZOOTa-20">
          <mxGeometry width="50" height="50" relative="1" as="geometry">
            <mxPoint x="870" y="470" as="sourcePoint" />
            <mxPoint x="920" y="440" as="targetPoint" />
            <Array as="points">
              <mxPoint x="900" y="410" />
            </Array>
          </mxGeometry>
        </mxCell>
        <mxCell id="lK_uX-MwU7xPtYsZOOTa-29" value="" style="endArrow=classic;html=1;rounded=0;entryX=0.5;entryY=0;entryDx=0;entryDy=0;exitX=0.5;exitY=1;exitDx=0;exitDy=0;" edge="1" parent="1" source="lK_uX-MwU7xPtYsZOOTa-19" target="lK_uX-MwU7xPtYsZOOTa-21">
          <mxGeometry width="50" height="50" relative="1" as="geometry">
            <mxPoint x="720" y="570" as="sourcePoint" />
            <mxPoint x="770" y="520" as="targetPoint" />
          </mxGeometry>
        </mxCell>
        <mxCell id="lK_uX-MwU7xPtYsZOOTa-30" value="" style="endArrow=classic;html=1;rounded=0;entryX=0.5;entryY=0;entryDx=0;entryDy=0;" edge="1" parent="1" source="lK_uX-MwU7xPtYsZOOTa-20" target="lK_uX-MwU7xPtYsZOOTa-22">
          <mxGeometry width="50" height="50" relative="1" as="geometry">
            <mxPoint x="760" y="520" as="sourcePoint" />
            <mxPoint x="760" y="560" as="targetPoint" />
          </mxGeometry>
        </mxCell>
        <mxCell id="lK_uX-MwU7xPtYsZOOTa-40" value="" style="endArrow=none;html=1;rounded=0;" edge="1" parent="1">
          <mxGeometry width="50" height="50" relative="1" as="geometry">
            <mxPoint x="60" y="200" as="sourcePoint" />
            <mxPoint x="990" y="200" as="targetPoint" />
          </mxGeometry>
        </mxCell>
        <mxCell id="lK_uX-MwU7xPtYsZOOTa-41" value="" style="endArrow=none;html=1;rounded=0;" edge="1" parent="1">
          <mxGeometry width="50" height="50" relative="1" as="geometry">
            <mxPoint x="190" y="370" as="sourcePoint" />
            <mxPoint x="430" y="370" as="targetPoint" />
          </mxGeometry>
        </mxCell>
        <mxCell id="lK_uX-MwU7xPtYsZOOTa-42" value="" style="endArrow=none;html=1;rounded=0;" edge="1" parent="1">
          <mxGeometry width="50" height="50" relative="1" as="geometry">
            <mxPoint x="70" y="330" as="sourcePoint" />
            <mxPoint x="430" y="330" as="targetPoint" />
          </mxGeometry>
        </mxCell>
        <mxCell id="lK_uX-MwU7xPtYsZOOTa-44" value="" style="endArrow=classic;html=1;rounded=0;" edge="1" parent="1">
          <mxGeometry width="50" height="50" relative="1" as="geometry">
            <mxPoint x="310" y="330" as="sourcePoint" />
            <mxPoint x="310" y="370" as="targetPoint" />
          </mxGeometry>
        </mxCell>
        <mxCell id="lK_uX-MwU7xPtYsZOOTa-45" value="" style="endArrow=classic;html=1;rounded=0;entryX=0.5;entryY=0;entryDx=0;entryDy=0;" edge="1" parent="1" target="lK_uX-MwU7xPtYsZOOTa-10">
          <mxGeometry width="50" height="50" relative="1" as="geometry">
            <mxPoint x="223" y="370" as="sourcePoint" />
            <mxPoint x="410" y="400" as="targetPoint" />
          </mxGeometry>
        </mxCell>
        <mxCell id="lK_uX-MwU7xPtYsZOOTa-46" value="" style="endArrow=classic;html=1;rounded=0;entryX=0.5;entryY=0;entryDx=0;entryDy=0;" edge="1" parent="1">
          <mxGeometry width="50" height="50" relative="1" as="geometry">
            <mxPoint x="304.79" y="370" as="sourcePoint" />
            <mxPoint x="304.79" y="410" as="targetPoint" />
          </mxGeometry>
        </mxCell>
        <mxCell id="lK_uX-MwU7xPtYsZOOTa-47" value="" style="endArrow=classic;html=1;rounded=0;entryX=0.5;entryY=0;entryDx=0;entryDy=0;" edge="1" parent="1">
          <mxGeometry width="50" height="50" relative="1" as="geometry">
            <mxPoint x="384.78999999999996" y="370" as="sourcePoint" />
            <mxPoint x="384.78999999999996" y="410" as="targetPoint" />
          </mxGeometry>
        </mxCell>
        <mxCell id="lK_uX-MwU7xPtYsZOOTa-48" value="" style="endArrow=none;html=1;rounded=0;" edge="1" parent="1">
          <mxGeometry width="50" height="50" relative="1" as="geometry">
            <mxPoint x="185" y="500" as="sourcePoint" />
            <mxPoint x="425" y="500" as="targetPoint" />
          </mxGeometry>
        </mxCell>
        <mxCell id="lK_uX-MwU7xPtYsZOOTa-52" value="" style="endArrow=classic;html=1;rounded=0;entryX=0.5;entryY=0;entryDx=0;entryDy=0;" edge="1" parent="1" target="lK_uX-MwU7xPtYsZOOTa-16">
          <mxGeometry width="50" height="50" relative="1" as="geometry">
            <mxPoint x="305" y="500" as="sourcePoint" />
            <mxPoint x="320" y="520" as="targetPoint" />
          </mxGeometry>
        </mxCell>
        <mxCell id="lK_uX-MwU7xPtYsZOOTa-53" value="" style="endArrow=classic;html=1;rounded=0;" edge="1" parent="1">
          <mxGeometry width="50" height="50" relative="1" as="geometry">
            <mxPoint x="100" y="330" as="sourcePoint" />
            <mxPoint x="100" y="370" as="targetPoint" />
          </mxGeometry>
        </mxCell>
        <mxCell id="lK_uX-MwU7xPtYsZOOTa-54" value="" style="endArrow=none;html=1;rounded=0;" edge="1" parent="1">
          <mxGeometry width="50" height="50" relative="1" as="geometry">
            <mxPoint x="70" y="710" as="sourcePoint" />
            <mxPoint x="430" y="710" as="targetPoint" />
          </mxGeometry>
        </mxCell>
        <mxCell id="lK_uX-MwU7xPtYsZOOTa-55" value="" style="endArrow=classic;html=1;rounded=0;exitX=0.5;exitY=1;exitDx=0;exitDy=0;" edge="1" parent="1" source="lK_uX-MwU7xPtYsZOOTa-14">
          <mxGeometry width="50" height="50" relative="1" as="geometry">
            <mxPoint x="90" y="530" as="sourcePoint" />
            <mxPoint x="100" y="710" as="targetPoint" />
          </mxGeometry>
        </mxCell>
        <mxCell id="lK_uX-MwU7xPtYsZOOTa-57" value="" style="endArrow=none;html=1;rounded=0;" edge="1" parent="1">
          <mxGeometry width="50" height="50" relative="1" as="geometry">
            <mxPoint x="60" y="780" as="sourcePoint" />
            <mxPoint x="990" y="780" as="targetPoint" />
          </mxGeometry>
        </mxCell>
        <mxCell id="lK_uX-MwU7xPtYsZOOTa-62" value="" style="endArrow=classic;html=1;rounded=0;" edge="1" parent="1">
          <mxGeometry width="50" height="50" relative="1" as="geometry">
            <mxPoint x="200" y="710" as="sourcePoint" />
            <mxPoint x="200" y="780" as="targetPoint" />
          </mxGeometry>
        </mxCell>
        <mxCell id="lK_uX-MwU7xPtYsZOOTa-63" value="" style="endArrow=classic;html=1;rounded=0;entryX=0.5;entryY=0;entryDx=0;entryDy=0;" edge="1" parent="1" target="lK_uX-MwU7xPtYsZOOTa-8">
          <mxGeometry width="50" height="50" relative="1" as="geometry">
            <mxPoint x="250" y="200" as="sourcePoint" />
            <mxPoint x="280" y="190" as="targetPoint" />
          </mxGeometry>
        </mxCell>
        <mxCell id="lK_uX-MwU7xPtYsZOOTa-65" value="" style="endArrow=classic;html=1;rounded=0;entryX=0.5;entryY=0;entryDx=0;entryDy=0;" edge="1" parent="1" target="lK_uX-MwU7xPtYsZOOTa-9">
          <mxGeometry width="50" height="50" relative="1" as="geometry">
            <mxPoint x="690" y="200" as="sourcePoint" />
            <mxPoint x="710" y="200" as="targetPoint" />
          </mxGeometry>
        </mxCell>
        <mxCell id="lK_uX-MwU7xPtYsZOOTa-66" style="edgeStyle=orthogonalEdgeStyle;rounded=0;orthogonalLoop=1;jettySize=auto;html=1;" edge="1" parent="1">
          <mxGeometry relative="1" as="geometry">
            <mxPoint x="700" y="330" as="targetPoint" />
            <mxPoint x="700" y="300" as="sourcePoint" />
          </mxGeometry>
        </mxCell>
        <mxCell id="lK_uX-MwU7xPtYsZOOTa-67" value="" style="endArrow=none;html=1;rounded=0;" edge="1" parent="1">
          <mxGeometry width="50" height="50" relative="1" as="geometry">
            <mxPoint x="540" y="330" as="sourcePoint" />
            <mxPoint x="900" y="330" as="targetPoint" />
          </mxGeometry>
        </mxCell>
        <mxCell id="lK_uX-MwU7xPtYsZOOTa-68" value="" style="endArrow=classic;html=1;rounded=0;entryX=0.5;entryY=0;entryDx=0;entryDy=0;" edge="1" parent="1" target="lK_uX-MwU7xPtYsZOOTa-24">
          <mxGeometry width="50" height="50" relative="1" as="geometry">
            <mxPoint x="569.58" y="330" as="sourcePoint" />
            <mxPoint x="569.58" y="370" as="targetPoint" />
          </mxGeometry>
        </mxCell>
        <mxCell id="lK_uX-MwU7xPtYsZOOTa-69" value="" style="endArrow=classic;html=1;rounded=0;entryX=0.5;entryY=0;entryDx=0;entryDy=0;" edge="1" parent="1" target="lK_uX-MwU7xPtYsZOOTa-18">
          <mxGeometry width="50" height="50" relative="1" as="geometry">
            <mxPoint x="820" y="330" as="sourcePoint" />
            <mxPoint x="710" y="320" as="targetPoint" />
          </mxGeometry>
        </mxCell>
        <mxCell id="lK_uX-MwU7xPtYsZOOTa-71" value="" style="endArrow=classic;html=1;rounded=0;exitX=0.5;exitY=1;exitDx=0;exitDy=0;" edge="1" parent="1" source="lK_uX-MwU7xPtYsZOOTa-7">
          <mxGeometry width="50" height="50" relative="1" as="geometry">
            <mxPoint x="480" y="200" as="sourcePoint" />
            <mxPoint x="510" y="200" as="targetPoint" />
          </mxGeometry>
        </mxCell>
        <mxCell id="lK_uX-MwU7xPtYsZOOTa-72" value="" style="endArrow=classic;html=1;rounded=0;entryX=1;entryY=0.5;entryDx=0;entryDy=0;" edge="1" parent="1" target="lK_uX-MwU7xPtYsZOOTa-7">
          <mxGeometry width="50" height="50" relative="1" as="geometry">
            <mxPoint x="520" y="780" as="sourcePoint" />
            <mxPoint x="570" y="790" as="targetPoint" />
            <Array as="points">
              <mxPoint x="520" y="820" />
              <mxPoint x="1000" y="820" />
              <mxPoint x="1000" y="130" />
            </Array>
          </mxGeometry>
        </mxCell>
        <mxCell id="lK_uX-MwU7xPtYsZOOTa-74" value="" style="endArrow=none;html=1;rounded=0;" edge="1" parent="1">
          <mxGeometry width="50" height="50" relative="1" as="geometry">
            <mxPoint x="-420" y="-40" as="sourcePoint" />
            <mxPoint x="1050" y="-40" as="targetPoint" />
          </mxGeometry>
        </mxCell>
        <mxCell id="lK_uX-MwU7xPtYsZOOTa-89" style="edgeStyle=orthogonalEdgeStyle;rounded=0;orthogonalLoop=1;jettySize=auto;html=1;entryX=0.5;entryY=0;entryDx=0;entryDy=0;" edge="1" parent="1" source="lK_uX-MwU7xPtYsZOOTa-77" target="lK_uX-MwU7xPtYsZOOTa-78">
          <mxGeometry relative="1" as="geometry" />
        </mxCell>
        <mxCell id="lK_uX-MwU7xPtYsZOOTa-90" style="edgeStyle=orthogonalEdgeStyle;rounded=0;orthogonalLoop=1;jettySize=auto;html=1;" edge="1" parent="1" source="lK_uX-MwU7xPtYsZOOTa-77" target="lK_uX-MwU7xPtYsZOOTa-79">
          <mxGeometry relative="1" as="geometry" />
        </mxCell>
        <mxCell id="lK_uX-MwU7xPtYsZOOTa-77" value="Chạy nền để check báo thức" style="rounded=1;whiteSpace=wrap;html=1;" vertex="1" parent="1">
          <mxGeometry x="-180" width="100" height="50" as="geometry" />
        </mxCell>
        <mxCell id="lK_uX-MwU7xPtYsZOOTa-86" style="edgeStyle=orthogonalEdgeStyle;rounded=0;orthogonalLoop=1;jettySize=auto;html=1;entryX=0.5;entryY=0;entryDx=0;entryDy=0;" edge="1" parent="1" source="lK_uX-MwU7xPtYsZOOTa-78" target="lK_uX-MwU7xPtYsZOOTa-80">
          <mxGeometry relative="1" as="geometry" />
        </mxCell>
        <mxCell id="lK_uX-MwU7xPtYsZOOTa-78" value="Hiển thị câu hỏi" style="rounded=1;whiteSpace=wrap;html=1;" vertex="1" parent="1">
          <mxGeometry x="-250" y="120" width="70" height="50" as="geometry" />
        </mxCell>
        <mxCell id="lK_uX-MwU7xPtYsZOOTa-91" style="edgeStyle=orthogonalEdgeStyle;rounded=0;orthogonalLoop=1;jettySize=auto;html=1;entryX=1;entryY=0.5;entryDx=0;entryDy=0;" edge="1" parent="1" source="lK_uX-MwU7xPtYsZOOTa-79" target="lK_uX-MwU7xPtYsZOOTa-77">
          <mxGeometry relative="1" as="geometry">
            <Array as="points">
              <mxPoint x="20" y="145" />
              <mxPoint x="20" y="25" />
            </Array>
          </mxGeometry>
        </mxCell>
        <mxCell id="lK_uX-MwU7xPtYsZOOTa-79" value="Quay lại để tiếp tục" style="rounded=1;whiteSpace=wrap;html=1;" vertex="1" parent="1">
          <mxGeometry x="-80" y="120" width="70" height="50" as="geometry" />
        </mxCell>
        <mxCell id="lK_uX-MwU7xPtYsZOOTa-84" style="edgeStyle=orthogonalEdgeStyle;rounded=0;orthogonalLoop=1;jettySize=auto;html=1;entryX=0.5;entryY=0;entryDx=0;entryDy=0;exitX=0;exitY=0.5;exitDx=0;exitDy=0;" edge="1" parent="1" source="lK_uX-MwU7xPtYsZOOTa-80" target="lK_uX-MwU7xPtYsZOOTa-81">
          <mxGeometry relative="1" as="geometry" />
        </mxCell>
        <mxCell id="lK_uX-MwU7xPtYsZOOTa-85" style="edgeStyle=orthogonalEdgeStyle;rounded=0;orthogonalLoop=1;jettySize=auto;html=1;entryX=0.5;entryY=0;entryDx=0;entryDy=0;exitX=1;exitY=0.5;exitDx=0;exitDy=0;" edge="1" parent="1" source="lK_uX-MwU7xPtYsZOOTa-80" target="lK_uX-MwU7xPtYsZOOTa-82">
          <mxGeometry relative="1" as="geometry" />
        </mxCell>
        <mxCell id="lK_uX-MwU7xPtYsZOOTa-80" value="Kiểm tra câu trả lời" style="rounded=1;whiteSpace=wrap;html=1;" vertex="1" parent="1">
          <mxGeometry x="-230" y="240" width="70" height="60" as="geometry" />
        </mxCell>
        <mxCell id="lK_uX-MwU7xPtYsZOOTa-83" style="edgeStyle=orthogonalEdgeStyle;rounded=0;orthogonalLoop=1;jettySize=auto;html=1;entryX=0;entryY=0.5;entryDx=0;entryDy=0;" edge="1" parent="1" source="lK_uX-MwU7xPtYsZOOTa-81" target="lK_uX-MwU7xPtYsZOOTa-78">
          <mxGeometry relative="1" as="geometry">
            <Array as="points">
              <mxPoint x="-360" y="380" />
              <mxPoint x="-360" y="145" />
            </Array>
          </mxGeometry>
        </mxCell>
        <mxCell id="lK_uX-MwU7xPtYsZOOTa-81" value="Thông báo trả lời sai" style="rounded=1;whiteSpace=wrap;html=1;" vertex="1" parent="1">
          <mxGeometry x="-320" y="350" width="70" height="60" as="geometry" />
        </mxCell>
        <mxCell id="lK_uX-MwU7xPtYsZOOTa-92" style="edgeStyle=orthogonalEdgeStyle;rounded=0;orthogonalLoop=1;jettySize=auto;html=1;entryX=0.5;entryY=0;entryDx=0;entryDy=0;" edge="1" parent="1" source="lK_uX-MwU7xPtYsZOOTa-82" target="lK_uX-MwU7xPtYsZOOTa-87">
          <mxGeometry relative="1" as="geometry" />
        </mxCell>
        <mxCell id="lK_uX-MwU7xPtYsZOOTa-82" value="Thông báo trả lời đúng" style="rounded=1;whiteSpace=wrap;html=1;" vertex="1" parent="1">
          <mxGeometry x="-135" y="350" width="70" height="60" as="geometry" />
        </mxCell>
        <mxCell id="lK_uX-MwU7xPtYsZOOTa-88" style="edgeStyle=orthogonalEdgeStyle;rounded=0;orthogonalLoop=1;jettySize=auto;html=1;entryX=0;entryY=0.5;entryDx=0;entryDy=0;" edge="1" parent="1" source="lK_uX-MwU7xPtYsZOOTa-87" target="lK_uX-MwU7xPtYsZOOTa-77">
          <mxGeometry relative="1" as="geometry">
            <Array as="points">
              <mxPoint x="-400" y="580" />
              <mxPoint x="-400" y="25" />
            </Array>
          </mxGeometry>
        </mxCell>
        <mxCell id="lK_uX-MwU7xPtYsZOOTa-87" value="Kết thúc báo thức" style="rounded=1;whiteSpace=wrap;html=1;" vertex="1" parent="1">
          <mxGeometry x="-160" y="550" width="120" height="60" as="geometry" />
        </mxCell>
        <mxCell id="lK_uX-MwU7xPtYsZOOTa-93" value="" style="endArrow=classic;html=1;rounded=0;entryX=0.5;entryY=0;entryDx=0;entryDy=0;" edge="1" parent="1" target="lK_uX-MwU7xPtYsZOOTa-77">
          <mxGeometry width="50" height="50" relative="1" as="geometry">
            <mxPoint x="-130" y="-40" as="sourcePoint" />
            <mxPoint x="-80" y="-40" as="targetPoint" />
          </mxGeometry>
        </mxCell>
        <mxCell id="lK_uX-MwU7xPtYsZOOTa-96" value="" style="endArrow=classic;html=1;rounded=0;entryX=0.5;entryY=0;entryDx=0;entryDy=0;" edge="1" parent="1" target="lK_uX-MwU7xPtYsZOOTa-6">
          <mxGeometry width="50" height="50" relative="1" as="geometry">
            <mxPoint x="510" y="-40" as="sourcePoint" />
            <mxPoint x="560" y="-40" as="targetPoint" />
          </mxGeometry>
        </mxCell>
        <mxCell id="lK_uX-MwU7xPtYsZOOTa-98" value="Sai" style="text;html=1;align=center;verticalAlign=middle;whiteSpace=wrap;rounded=0;" vertex="1" parent="1">
          <mxGeometry x="-290" y="255" width="60" height="10" as="geometry" />
        </mxCell>
        <mxCell id="lK_uX-MwU7xPtYsZOOTa-99" value="Đúng" style="text;html=1;align=center;verticalAlign=middle;whiteSpace=wrap;rounded=0;" vertex="1" parent="1">
          <mxGeometry x="-160" y="255" width="60" height="10" as="geometry" />
        </mxCell>
        <mxCell id="lK_uX-MwU7xPtYsZOOTa-101" value="Có" style="text;html=1;align=center;verticalAlign=middle;whiteSpace=wrap;rounded=0;" vertex="1" parent="1">
          <mxGeometry x="-200" y="60" width="60" height="30" as="geometry" />
        </mxCell>
        <mxCell id="lK_uX-MwU7xPtYsZOOTa-102" value="Không" style="text;html=1;align=center;verticalAlign=middle;whiteSpace=wrap;rounded=0;" vertex="1" parent="1">
          <mxGeometry x="-110" y="60" width="60" height="30" as="geometry" />
        </mxCell>
      </root>
    </mxGraphModel>
  </diagram>
</mxfile>
